{"accessors":[{"bufferView":1,"componentType":5126,"count":2789,"max":[23.60540008544922,23.223600387573242,132.3762969970703],"min":[-22.841899871826172,-23.223600387573242,60.16960144042969],"type":"VEC3","byteOffset":0},{"bufferView":1,"byteOffset":33468,"componentType":5126,"count":2789,"max":[0.9999916553497314,0.9999916553497314,1],"min":[-0.9999916553497314,-0.9999916553497314,-1],"type":"VEC3"},{"bufferView":2,"componentType":5126,"count":2789,"max":[1,1,0.9615768194198608,1],"min":[-1,-1,-0.9851357936859131,-1],"type":"VEC4","byteOffset":0},{"bufferView":0,"componentType":5125,"count":16320,"max":[2788],"min":[0],"type":"SCALAR","byteOffset":0},{"bufferView":1,"byteOffset":66936,"componentType":5126,"count":2698,"max":[28.03420066833496,28.03420066833496,61.194400787353516],"min":[-28.03420066833496,-28.03420066833496,0.002899999963119626],"type":"VEC3"},{"bufferView":1,"byteOffset":99312,"componentType":5126,"count":2698,"max":[0.9987340569496155,0.9987340569496155,1],"min":[-0.9987340569496155,-0.9987340569496155,-1],"type":"VEC3"},{"bufferView":2,"byteOffset":44624,"componentType":5126,"count":2698,"max":[1,1,0.9349880218505859,1],"min":[-1,-1,-0.9567396640777588,-1],"type":"VEC4"},{"bufferView":0,"byteOffset":65280,"componentType":5125,"count":14976,"max":[2697],"min":[0],"type":"SCALAR"},{"bufferView":1,"byteOffset":131688,"componentType":5126,"count":1349,"max":[15.173600196838379,14.710000038146973,155.59010314941406],"min":[-14.246399879455566,-14.710000038146973,130.970703125],"type":"VEC3"},{"bufferView":1,"byteOffset":147876,"componentType":5126,"count":1349,"max":[0.995400607585907,0.995400607585907,1],"min":[-0.995400607585907,-0.995400607585907,-1],"type":"VEC3"},{"bufferView":2,"byteOffset":87792,"componentType":5126,"count":1349,"max":[1,1,0.9567286372184753,1],"min":[-1,-1,-0.9349823594093323,-1],"type":"VEC4"},{"bufferView":0,"byteOffset":125184,"componentType":5125,"count":7488,"max":[1348],"min":[0],"type":"SCALAR"},{"bufferView":1,"byteOffset":164064,"componentType":5126,"count":1440,"max":[12.896599769592285,13.447099685668945,134.701904296875],"min":[-5.562900066375732,-11.843700408935547,68.49019622802734],"type":"VEC3"},{"bufferView":1,"byteOffset":181344,"componentType":5126,"count":1440,"max":[1,1,1],"min":[-1,-1,-1],"type":"VEC3"},{"bufferView":2,"byteOffset":109376,"componentType":5126,"count":1440,"max":[0.9999998807907104,0.7440989017486572,0.9999927282333374,1],"min":[-0.9999998807907104,-0.7878363728523254,-0.9999927282333374,-1],"type":"VEC4"},{"bufferView":0,"byteOffset":155136,"componentType":5125,"count":6912,"max":[1439],"min":[0],"type":"SCALAR"},{"bufferView":1,"byteOffset":198624,"componentType":5126,"count":1504,"max":[3.5731000900268555,6.940899848937988,107.98310089111328],"min":[-13.514399528503418,-9.201299667358398,59.7682991027832],"type":"VEC3"},{"bufferView":1,"byteOffset":216672,"componentType":5126,"count":1504,"max":[0.9999102354049683,0.9999339580535889,1],"min":[-0.9999102354049683,-0.9999339580535889,-1],"type":"VEC3"},{"bufferView":2,"byteOffset":132416,"componentType":5126,"count":1504,"max":[1,0.7352453470230103,0.9997642040252686,1],"min":[-1,-0.7719189524650574,-0.9997642040252686,-1],"type":"VEC4"},{"bufferView":0,"byteOffset":182784,"componentType":5125,"count":8448,"max":[1503],"min":[0],"type":"SCALAR"}],"asset":{"extras":{"author":"JoelHdez (https://sketchfab.com/JoelHdez)","license":"CC-BY-4.0 (http://creativecommons.org/licenses/by/4.0/)","source":"https://sketchfab.com/models/96db13b8467149d2ac7a01b33c685dc9","title":"Lava Lamp"},"generator":"Sketchfab-3.18.6","version":"2.0"},"bufferViews":[{"buffer":0,"byteLength":216576,"byteOffset":0,"name":"floatBufferViews","target":34963},{"buffer":0,"byteLength":234720,"byteOffset":216576,"byteStride":12,"name":"floatBufferViews","target":34962},{"buffer":0,"byteLength":156480,"byteOffset":451296,"byteStride":16,"name":"floatBufferViews","target":34962}],"buffers":[{"byteLength":607776,"uri":"data:application/octet-stream;base64,"}],"materials":[{"doubleSided":true,"emissiveFactor":[0,0,0],"name":"wire_115115115","pbrMetallicRoughness":{"baseColorFactor":[0.6793540519,0.6793540519,0.6793540519,1],"metallicFactor":0.8405208588,"roughnessFactor":0.5907291412},"alphaMode":"OPAQUE"},{"alphaMode":"BLEND","doubleSided":true,"emissiveFactor":[1,0.4957355428685547,0.06912717550477808],"name":"wire_135110008","pbrMetallicRoughness":{"baseColorFactor":[0.8288648174,0.6534885176,0.471184919,0.5094791412],"metallicFactor":0,"roughnessFactor":0}},{"doubleSided":true,"emissiveFactor":[0.49578383383492153,0.3236872766927872,0.0005973015004000566],"name":"wire_153228184","pbrMetallicRoughness":{"baseColorFactor":[0.8506050551,0.4741615915,0.0088218016,1],"metallicFactor":0,"roughnessFactor":1},"alphaMode":"OPAQUE"}],"meshes":[{"primitives":[{"attributes":{"NORMAL":1,"POSITION":0,"TANGENT":2},"indices":3,"material":1,"mode":4}]},{"primitives":[{"attributes":{"NORMAL":5,"POSITION":4,"TANGENT":6},"indices":7,"material":0,"mode":4}]},{"primitives":[{"attributes":{"NORMAL":9,"POSITION":8,"TANGENT":10},"indices":11,"material":0,"mode":4}]},{"primitives":[{"attributes":{"NORMAL":13,"POSITION":12,"TANGENT":14},"indices":15,"material":2,"mode":4}]},{"primitives":[{"attributes":{"NORMAL":17,"POSITION":16,"TANGENT":18},"indices":19,"material":2,"mode":4}]}],"nodes":[{"children":[1],"name":"RootNode (gltf orientation matrix)","rotation":[-0.7071067811865475,0,0,0.7071067811865476],"translation":[0,0,0],"scale":[1,1,1]},{"children":[2],"name":"RootNode (model correction matrix)"},{"children":[3,4,5,6,7],"name":"lava lamp.obj.cleaner.materialmerger.gles"},{"mesh":0,"name":""},{"mesh":1,"name":""},{"mesh":2,"name":""},{"mesh":3,"name":""},{"mesh":4,"name":""}],"scene":0,"scenes":[{"name":"OSG_Scene","nodes":[0]}]}
