{
  "accessors": [
    {
      "bufferView": 1,
      "componentType": 5126,
      "count": 2789,
      "max": [
        23.605400085449219,
        23.223600387573242,
        132.37629699707031
      ],
      "min": [
        -22.841899871826172,
        -23.223600387573242,
        60.169601440429688
      ],
      "type": "VEC3"
    },
    {
      "bufferView": 1,
      "byteOffset": 33468,
      "componentType": 5126,
      "count": 2789,
      "max": [
        0.99999165534973145,
        0.99999165534973145,
        1
      ],
      "min": [
        -0.99999165534973145,
        -0.99999165534973145,
        -1
      ],
      "type": "VEC3"
    },
    {
      "bufferView": 2,
      "componentType": 5126,
      "count": 2789,
      "max": [
        1,
        1,
        0.96157681941986084,
        1
      ],
      "min": [
        -1,
        -1,
        -0.98513579368591309,
        -1
      ],
      "type": "VEC4"
    },
    {
      "bufferView": 0,
      "componentType": 5125,
      "count": 16320,
      "max": [
        2788
      ],
      "min": [
        0
      ],
      "type": "SCALAR"
    },
    {
      "bufferView": 1,
      "byteOffset": 66936,
      "componentType": 5126,
      "count": 2698,
      "max": [
        28.034200668334961,
        28.034200668334961,
        61.194400787353516
      ],
      "min": [
        -28.034200668334961,
        -28.034200668334961,
        0.002899999963119626
      ],
      "type": "VEC3"
    },
    {
      "bufferView": 1,
      "byteOffset": 99312,
      "componentType": 5126,
      "count": 2698,
      "max": [
        0.99873405694961548,
        0.99873405694961548,
        1
      ],
      "min": [
        -0.99873405694961548,
        -0.99873405694961548,
        -1
      ],
      "type": "VEC3"
    },
    {
      "bufferView": 2,
      "byteOffset": 44624,
      "componentType": 5126,
      "count": 2698,
      "max": [
        1,
        1,
        0.93498802185058594,
        1
      ],
      "min": [
        -1,
        -1,
        -0.95673966407775879,
        -1
      ],
      "type": "VEC4"
    },
    {
      "bufferView": 0,
      "byteOffset": 65280,
      "componentType": 5125,
      "count": 14976,
      "max": [
        2697
      ],
      "min": [
        0
      ],
      "type": "SCALAR"
    },
    {
      "bufferView": 1,
      "byteOffset": 131688,
      "componentType": 5126,
      "count": 1349,
      "max": [
        15.173600196838379,
        14.710000038146973,
        155.59010314941406
      ],
      "min": [
        -14.246399879455566,
        -14.710000038146973,
        130.970703125
      ],
      "type": "VEC3"
    },
    {
      "bufferView": 1,
      "byteOffset": 147876,
      "componentType": 5126,
      "count": 1349,
      "max": [
        0.99540060758590698,
        0.99540060758590698,
        1
      ],
      "min": [
        -0.99540060758590698,
        -0.99540060758590698,
        -1
      ],
      "type": "VEC3"
    },
    {
      "bufferView": 2,
      "byteOffset": 87792,
      "componentType": 5126,
      "count": 1349,
      "max": [
        1,
        1,
        0.95672863721847534,
        1
      ],
      "min": [
        -1,
        -1,
        -0.93498235940933228,
        -1
      ],
      "type": "VEC4"
    },
    {
      "bufferView": 0,
      "byteOffset": 125184,
      "componentType": 5125,
      "count": 7488,
      "max": [
        1348
      ],
      "min": [
        0
      ],
      "type": "SCALAR"
    },
    {
      "bufferView": 1,
      "byteOffset": 164064,
      "componentType": 5126,
      "count": 1440,
      "max": [
        12.896599769592285,
        13.447099685668945,
        134.701904296875
      ],
      "min": [
        -5.5629000663757324,
        -11.843700408935547,
        68.490196228027344
      ],
      "type": "VEC3"
    },
    {
      "bufferView": 1,
      "byteOffset": 181344,
      "componentType": 5126,
      "count": 1440,
      "max": [
        1,
        1,
        1
      ],
      "min": [
        -1,
        -1,
        -1
      ],
      "type": "VEC3"
    },
    {
      "bufferView": 2,
      "byteOffset": 109376,
      "componentType": 5126,
      "count": 1440,
      "max": [
        0.99999988079071045,
        0.74409890174865723,
        0.9999927282333374,
        1
      ],
      "min": [
        -0.99999988079071045,
        -0.78783637285232544,
        -0.9999927282333374,
        -1
      ],
      "type": "VEC4"
    },
    {
      "bufferView": 0,
      "byteOffset": 155136,
      "componentType": 5125,
      "count": 6912,
      "max": [
        1439
      ],
      "min": [
        0
      ],
      "type": "SCALAR"
    },
    {
      "bufferView": 1,
      "byteOffset": 198624,
      "componentType": 5126,
      "count": 1504,
      "max": [
        3.5731000900268555,
        6.9408998489379883,
        107.98310089111328
      ],
      "min": [
        -13.514399528503418,
        -9.2012996673583984,
        59.768299102783203
      ],
      "type": "VEC3"
    },
    {
      "bufferView": 1,
      "byteOffset": 216672,
      "componentType": 5126,
      "count": 1504,
      "max": [
        0.99991023540496826,
        0.99993395805358887,
        1
      ],
      "min": [
        -0.99991023540496826,
        -0.99993395805358887,
        -1
      ],
      "type": "VEC3"
    },
    {
      "bufferView": 2,
      "byteOffset": 132416,
      "componentType": 5126,
      "count": 1504,
      "max": [
        1,
        0.73524534702301025,
        0.99976420402526855,
        1
      ],
      "min": [
        -1,
        -0.77191895246505737,
        -0.99976420402526855,
        -1
      ],
      "type": "VEC4"
    },
    {
      "bufferView": 0,
      "byteOffset": 182784,
      "componentType": 5125,
      "count": 8448,
      "max": [
        1503
      ],
      "min": [
        0
      ],
      "type": "SCALAR"
    }
  ],
  "asset": {
    "extras": {
      "author": "JoelHdez (https://sketchfab.com/JoelHdez)",
      "license": "CC-BY-4.0 (http://creativecommons.org/licenses/by/4.0/)",
      "source": "https://sketchfab.com/models/96db13b8467149d2ac7a01b33c685dc9",
      "title": "Lava Lamp"
    },
    "generator": "Sketchfab-3.18.6",
    "version": "2.0"
  },
  "bufferViews": [
    {
      "buffer": 0,
      "byteLength": 216576,
      "byteOffset": 0,
      "name": "floatBufferViews",
      "target": 34963
    },
    {
      "buffer": 0,
      "byteLength": 234720,
      "byteOffset": 216576,
      "byteStride": 12,
      "name": "floatBufferViews",
      "target": 34962
    },
    {
      "buffer": 0,
      "byteLength": 156480,
      "byteOffset": 451296,
      "byteStride": 16,
      "name": "floatBufferViews",
      "target": 34962
    }
  ],
  "buffers": [
    {
      "byteLength": 607776,
      "uri": "scene.bin"
    }
  ],
  "materials": [
    {
      "doubleSided": true,
      "emissiveFactor": [
        0,
        0,
        0
      ],
      "name": "wire_115115115",
      "pbrMetallicRoughness": {
        "baseColorFactor": [
          0.67935405189999998,
          0.67935405189999998,
          0.67935405189999998,
          1
        ],
        "metallicFactor": 0.84052085880000005,
        "roughnessFactor": 0.59072914119999997
      }
    },
    {
      "alphaMode": "BLEND",
      "doubleSided": true,
      "emissiveFactor": [
        1,
        0.4957355428685547,
        0.069127175504778079
      ],
      "name": "wire_135110008",
      "pbrMetallicRoughness": {
        "baseColorFactor": [
          0.82886481739999995,
          0.65348851760000004,
          0.47118491899999998,
          0.50947914120000004
        ],
        "metallicFactor": 0,
        "roughnessFactor": 0
      }
    },
    {
      "doubleSided": true,
      "emissiveFactor": [
        0.49578383383492153,
        0.32368727669278718,
        0.00059730150040005663
      ],
      "name": "wire_153228184",
      "pbrMetallicRoughness": {
        "baseColorFactor": [
          0.85060505509999995,
          0.47416159149999998,
          0.0088218016,
          1
        ],
        "metallicFactor": 0,
        "roughnessFactor": 1
      }
    }
  ],
  "meshes": [
    {
      "primitives": [
        {
          "attributes": {
            "NORMAL": 1,
            "POSITION": 0,
            "TANGENT": 2
          },
          "indices": 3,
          "material": 1,
          "mode": 4
        }
      ]
    },
    {
      "primitives": [
        {
          "attributes": {
            "NORMAL": 5,
            "POSITION": 4,
            "TANGENT": 6
          },
          "indices": 7,
          "material": 0,
          "mode": 4
        }
      ]
    },
    {
      "primitives": [
        {
          "attributes": {
            "NORMAL": 9,
            "POSITION": 8,
            "TANGENT": 10
          },
          "indices": 11,
          "material": 0,
          "mode": 4
        }
      ]
    },
    {
      "primitives": [
        {
          "attributes": {
            "NORMAL": 13,
            "POSITION": 12,
            "TANGENT": 14
          },
          "indices": 15,
          "material": 2,
          "mode": 4
        }
      ]
    },
    {
      "primitives": [
        {
          "attributes": {
            "NORMAL": 17,
            "POSITION": 16,
            "TANGENT": 18
          },
          "indices": 19,
          "material": 2,
          "mode": 4
        }
      ]
    }
  ],
  "nodes": [
    {
      "children": [
        1
      ],
      "name": "RootNode (gltf orientation matrix)",
      "rotation": [
        -0.70710678118654746,
        -0,
        -0,
        0.70710678118654757
      ]
    },
    {
      "children": [
        2
      ],
      "name": "RootNode (model correction matrix)"
    },
    {
      "children": [
        3,
        4,
        5,
        6,
        7
      ],
      "name": "lava lamp.obj.cleaner.materialmerger.gles"
    },
    {
      "mesh": 0,
      "name": ""
    },
    {
      "mesh": 1,
      "name": ""
    },
    {
      "mesh": 2,
      "name": ""
    },
    {
      "mesh": 3,
      "name": ""
    },
    {
      "mesh": 4,
      "name": ""
    }
  ],
  "scene": 0,
  "scenes": [
    {
      "name": "OSG_Scene",
      "nodes": [
        0
      ]
    }
  ]
}

